<svg xmlns="http://www.w3.org/2000/svg" viewBox="0 0 145.13 28.54"><defs><style>.cls-1{fill:#fff;}</style></defs><g id="Layer_2" data-name="Layer 2"><g id="Layer_1-2" data-name="Layer 1"><path class="cls-1" d="M71.6,7.64h.88v18.7H71.6Z"/><path class="cls-1" d="M72.56,26.41h-1V7.57h1Zm-.88-.14h.73V7.71h-.73V26.26h0Z"/><path class="cls-1" d="M91.21,26.34h-1.1l-4.18-5a14.37,14.37,0,0,1-1.62.11H81.66v4.87h-.91V7.64h3.52c5,0,7.48,3.11,7.48,6.93a6.44,6.44,0,0,1-4.92,6.6Zm-7-5.64c4.78,0,6.71-2.75,6.71-6.13s-2-6.16-6.71-6.16H81.66V20.7Z"/><path class="cls-1" d="M91.36,26.41H90.07l-4.18-5a13.84,13.84,0,0,1-1.59.11H81.75v4.87h-1V7.57h3.59c4.59,0,7.55,2.75,7.55,7A6.51,6.51,0,0,1,87,21.21Zm-1.22-.14h.91l-4.3-5.14h.11a6.39,6.39,0,0,0,4.89-6.56c0-3.31-2-6.86-7.41-6.86H80.86V26.26h.74V21.4h2.71a14.35,14.35,0,0,0,1.61-.11h0Zm-6-5.49h-2.6V8.34h2.6c4.25,0,6.78,2.33,6.78,6.23s-2.47,6.2-6.78,6.2h0Zm-2.39-.15h2.46c4.22,0,6.64-2.21,6.64-6.06s-2.48-6.09-6.64-6.09H81.75Z"/><path class="cls-1" d="M98.93,7.64h10.82v.77h-9.9V19.05h8.9v.77H99.81v5.75h10.28v.77H98.93Z"/><path class="cls-1" d="M110.16,26.41H98.85V7.57h10.9v.91h-9.9V19h8.9v1H99.88v5.6h10.28ZM99,26.27h11v-.63H99.75V19.75h8.88v-.63H99.75V8.34h9.9V7.71H99V26.26h0Z"/><path class="cls-1" d="M117,7.64h.88V25.57h9v.77H117Z"/><path class="cls-1" d="M127,26.41H116.91V7.57h1V25.49h9v.91H127Zm-9.93-.14h9.78v-.63h-9.08V7.71h-.69V26.26h0Z"/><path class="cls-1" d="M131.55,26.25,143.27,8.41H132.75V7.64h11.92v.08L133,25.57h12.1v.77H131.55Z"/><path class="cls-1" d="M145.13,26.41H131.48v-.2L143.13,8.48H132.69V7.57h12.06v.19L133.09,25.49h12v.91h0Zm-13.49-.14H145v-.63H132.82L144.59,7.71H132.84v.63H143.4Z"/><path class="cls-1" d="M64.11,26.43h-1v-17C61,11,55.36,15.54,55.45,21.22h-1c0-5.68-5.56-10.26-7.7-11.79v17h-1V7.53l.79.49c.31.19,6.54,4.12,8.39,9.94,1.85-5.76,8.08-9.69,8.4-9.88l.79-.49V26.43h0Z"/><path class="cls-1" d="M12.41,6.23A14.19,14.19,0,0,1,15.33,3.8,5.25,5.25,0,0,0,16.94,2a5.47,5.47,0,0,0,1.64,1.84,14.76,14.76,0,0,1,2.89,2.4c.25-.24.52-.49.78-.71A14.74,14.74,0,0,0,19.16,3a3.35,3.35,0,0,1-.6-.53l-.31-.4L18.16,2A10.84,10.84,0,0,1,17.42.84L17,0a4.71,4.71,0,0,1-.42.84,5.77,5.77,0,0,1-1.78,2.08,15.39,15.39,0,0,0-3.12,2.63C11.9,5.77,12.16,6,12.41,6.23Z"/><path class="cls-1" d="M7.79,23.18a8.39,8.39,0,0,0,1,.88V12.81c-.32-.33-.65-.64-1-.94v11.3Z"/><path class="cls-1" d="M26.14,23V11.77c-.35.3-.68.61-1,.94V24A7.87,7.87,0,0,0,26.14,23Z"/><path class="cls-1" d="M8.74,8.72h0V6c2.11,1.5,7.72,6.09,7.7,11.79h1c0-5.7,5.57-10.3,7.68-11.79V8.68a9.64,9.64,0,0,1,1-.54V4l-.79.49c-.32.19-6.55,4.12-8.4,9.88-1.86-5.76-8.09-9.69-8.4-9.88L7.77,4V8.2A6.94,6.94,0,0,1,8.74,8.72Z"/><path class="cls-1" d="M33.25,8.87c-.18,0-4.45-1.35-7.67.77C25.49,9.7,17,15.4,18.72,27.4c-.46.06-.92.09-1.38.11a16.29,16.29,0,0,1-2.21-.13c1.67-12-6.78-17.7-6.91-17.79C5.05,7.51.78,8.8.6,8.86L0,9l.25.57s1,2.22,1.82,4.17A34.73,34.73,0,0,1,3.33,18c.3,1.19.59,2.28.92,3.28,2.4,6.93,11,7.26,12.79,7.26h0c2.3,0,10.23-.7,12.5-7.29.33-1,.62-2.09.92-3.28a34.36,34.36,0,0,1,1.23-4.21c.82-1.94,1.82-4.17,1.82-4.17L33.77,9ZM14.08,27.23c-3.06-.53-7.38-2-8.85-6.31-.32-.93-.6-2-.9-3.2A35.32,35.32,0,0,0,3,13.35C2.45,12,1.81,10.49,1.45,9.7a8.62,8.62,0,0,1,6.22.78C7.76,10.53,15.66,15.88,14.08,27.23Zm16.7-13.9a35.37,35.37,0,0,0-1.31,4.37c-.3,1.2-.58,2.27-.9,3.2-1.48,4.31-5.79,5.78-8.85,6.31-1.54-11.35,6.33-16.69,6.46-16.78a7,7,0,0,1,3.83-1,11.58,11.58,0,0,1,2.35.25C32,10.47,31.33,12,30.78,13.33Z"/></g></g></svg>